# xmcd
#
# Track frame offsets:
#	150
#	24255
#	52083
#	75478
#	88711
#	115013
#	137029
#	161270
#	184607
#	209309
#	230381
#	250549
#
# Disc length: 3670 seconds
#
# Revision: 0
# Processed by: cddbd v1.5PL3 Copyright (c) Steve Scherf et al.
# Submitted via: dBpowerAMP V4.0
#
DISCID=8a0e540c
DTITLE=NATIVE CHANTS - ANKA
DYEAR=1900
DGENRE=Native American
TTITLE0=OMA HEA RINDING WEST
TTITLE1=UKUNANAY DEEP PAIN
TTITLE2=JANANAO NISPA WITH PAIN YOU SAY
TTITLE3=CHEY CHEY CHEA CHANT OF MANKIND
TTITLE4=FLYING CONDOR
TTITLE5=MONTEZUMA
TTITLE6=LY O LAY ALE LOYA THE COUNTERCLOCKWISE CIRCLE DANCE
TTITLE7=AXTU LEM SUMIX SACRED MOUNTAIN
TTITLE8=WHITE BUFFALO
TTITLE9=RAINBOW
TTITLE10=HEYA NOHA WISHES OF HAPPINESS and PROSPERITY
TTITLE11=URPI WAQAY THE CRY OF THE PIGEON
EXTD=
EXTT0=
EXTT1=
EXTT2=
EXTT3=
EXTT4=
EXTT5=
EXTT6=
EXTT7=
EXTT8=
EXTT9=
EXTT10=
EXTT11=
PLAYORDER=
